<?xml version="1.0" standalone="no"?>
<!DOCTYPE svg PUBLIC "-//W3C//DTD SVG 20010904//EN"
 "http://www.w3.org/TR/2001/REC-SVG-20010904/DTD/svg10.dtd">
<svg version="1.0" xmlns="http://www.w3.org/2000/svg"
 width="761.000000pt" height="761.000000pt" viewBox="0 0 761.000000 761.000000"
 preserveAspectRatio="xMidYMid meet">
<metadata>
Created by potrace 1.14, written by Peter Selinger 2001-2017
</metadata>
<g transform="translate(0.000000,761.000000) scale(0.100000,-0.100000)"
fill="#000000" stroke="none">
<path d="M3866 6604 c-122 -19 -145 -28 -191 -75 -35 -35 -221 -139 -251 -139
-22 0 -110 -84 -189 -180 -48 -58 -94 -114 -103 -125 -10 -11 -49 -63 -88
-115 -164 -219 -230 -353 -249 -508 -8 -62 34 -354 67 -465 11 -38 17 -71 14
-74 -3 -4 -25 2 -48 13 -23 10 -42 17 -43 15 0 -2 -11 2 -24 9 -17 8 -62 13
-135 12 -121 -1 -303 -11 -324 -18 -18 -5 -10 -65 24 -195 14 -52 25 -103 25
-114 0 -10 4 -24 9 -30 5 -6 9 -20 8 -30 0 -11 5 -33 12 -50 7 -16 12 -34 12
-38 -1 -4 7 -26 18 -49 11 -23 20 -47 20 -53 0 -7 6 -25 14 -41 8 -16 20 -40
26 -54 14 -31 29 -57 58 -97 12 -17 22 -34 22 -38 0 -10 72 -98 129 -158 52
-55 154 -137 170 -137 6 0 11 -3 11 -8 0 -4 23 -17 50 -30 43 -20 50 -27 50
-51 0 -16 3 -42 6 -58 5 -28 0 -32 -159 -140 -573 -387 -1017 -735 -1345
-1055 -73 -72 -136 -128 -138 -125 -3 3 8 31 25 62 39 73 39 110 -1 187 -25
46 -33 74 -32 110 0 26 4 51 8 55 4 5 52 7 107 6 79 -2 99 0 99 11 0 16 21 26
55 26 13 0 27 5 30 10 3 6 14 10 25 10 10 0 32 14 50 30 18 17 38 30 46 30 7
0 18 9 24 19 5 11 19 23 30 26 11 3 20 13 20 21 0 8 4 14 9 14 9 0 81 107 81
121 0 5 9 24 19 42 24 43 54 187 52 252 -1 46 -7 113 -12 125 -1 3 -1 9 0 13
1 7 -13 55 -44 152 -21 63 -45 115 -53 115 -4 0 -16 18 -26 40 -11 22 -22 40
-26 40 -4 0 -13 13 -19 28 -7 16 -26 44 -44 63 -17 19 -51 60 -75 92 -23 32
-65 80 -93 108 l-50 50 -59 -46 c-32 -25 -63 -45 -69 -45 -6 0 -11 -4 -11 -10
0 -5 -17 -18 -38 -29 -20 -11 -62 -42 -92 -70 -30 -28 -60 -51 -66 -51 -12 0
-55 -59 -89 -122 -11 -20 -33 -60 -49 -89 -15 -29 -35 -74 -43 -101 -16 -55
-25 -267 -12 -284 5 -6 10 -31 10 -55 1 -24 5 -48 9 -54 4 -5 11 -27 14 -49 4
-21 11 -46 15 -55 5 -9 18 -35 30 -57 11 -23 21 -47 21 -54 0 -6 9 -23 20 -37
11 -14 20 -35 20 -47 0 -13 13 -32 31 -45 17 -13 35 -36 41 -52 5 -16 22 -35
36 -42 26 -12 27 -16 27 -87 0 -62 5 -84 28 -127 37 -72 35 -111 -12 -197 -21
-39 -45 -91 -52 -116 -9 -33 -36 -71 -99 -140 -230 -256 -316 -356 -522 -613
l-138 -171 0 -144 0 -145 21 27 21 26 146 -6 c114 -5 166 -3 232 9 47 9 112
18 144 22 l59 6 -6 -51 c-4 -29 -12 -67 -18 -85 -11 -30 -10 -37 5 -54 13 -14
16 -28 11 -49 -4 -18 -2 -33 5 -37 6 -4 8 -15 5 -24 -3 -10 1 -23 9 -30 8 -6
17 -27 20 -46 4 -19 12 -40 19 -47 7 -7 21 -30 31 -51 19 -37 94 -120 147
-163 34 -28 141 -90 187 -110 61 -25 173 -44 262 -44 90 0 238 33 315 69 22
11 56 25 77 31 39 12 141 62 163 80 11 9 8 23 -17 78 -17 37 -42 92 -55 122
-83 184 -107 221 -198 312 -108 106 -156 140 -233 164 -31 10 -73 24 -92 33
-19 8 -46 16 -60 17 -14 1 -60 5 -103 10 -93 8 -304 -12 -328 -32 -8 -8 -31
-17 -50 -21 -19 -3 -39 -13 -46 -22 -8 -12 -26 -15 -74 -13 -35 1 -65 5 -68 7
-4 5 23 17 111 49 67 25 93 55 113 134 9 36 21 73 27 80 15 17 69 5 86 -19 10
-14 26 -19 63 -19 36 0 54 -5 69 -20 18 -18 25 -19 67 -9 34 9 50 9 64 1 11
-7 36 -9 63 -6 30 4 51 2 60 -5 10 -8 21 -9 33 -3 10 5 43 10 75 10 31 0 65 5
76 11 11 6 28 8 37 5 9 -4 26 -2 38 4 22 11 68 20 122 25 17 2 39 8 50 14 11
6 40 19 65 28 25 9 58 23 73 31 16 8 34 14 40 14 16 0 138 61 155 77 7 7 20
13 28 13 8 0 14 4 14 8 0 5 18 21 41 38 22 16 66 54 98 84 32 30 93 87 135
125 41 39 76 74 76 80 0 13 92 148 108 158 6 4 12 14 12 21 0 8 6 19 13 25 8
6 20 29 27 51 8 23 22 46 32 51 10 5 18 18 18 28 0 10 7 24 15 31 8 7 15 17
15 22 0 6 17 36 39 68 34 52 37 59 22 72 -23 19 -122 58 -165 65 -20 3 -39 9
-42 14 -2 5 -27 11 -54 15 -28 4 -50 10 -50 15 0 5 -13 9 -30 9 -16 0 -30 5
-30 10 0 6 -22 10 -49 10 -28 0 -53 5 -56 10 -4 6 -15 8 -25 5 -10 -3 -21 -1
-25 5 -4 7 -12 7 -26 -1 -17 -8 -23 -7 -34 8 -11 14 -16 15 -26 6 -7 -7 -18
-9 -28 -4 -17 9 -62 8 -146 -3 -27 -4 -71 -8 -96 -10 -25 -2 -54 -8 -65 -13
-10 -6 -24 -8 -31 -6 -6 2 -14 -1 -18 -6 -3 -6 -20 -11 -37 -11 -16 0 -42 -6
-56 -14 -15 -7 -45 -19 -67 -25 -50 -15 -105 -43 -105 -53 0 -5 -8 -8 -18 -8
-11 0 -27 -9 -36 -19 -10 -11 -23 -18 -30 -15 -7 3 -21 -4 -31 -16 -10 -11
-26 -20 -36 -20 -10 0 -23 -9 -29 -20 -6 -11 -17 -20 -24 -20 -8 0 -21 -11
-30 -25 -9 -14 -25 -25 -36 -25 -10 0 -26 -13 -36 -29 -9 -15 -30 -36 -45 -45
-16 -10 -29 -23 -29 -31 0 -7 -8 -16 -18 -20 -11 -3 -24 -17 -30 -30 -6 -14
-18 -25 -27 -25 -9 0 -15 -9 -15 -24 0 -14 -11 -33 -25 -44 -14 -11 -25 -27
-25 -35 0 -8 -7 -20 -15 -27 -8 -7 -15 -21 -15 -31 0 -10 -13 -28 -30 -40 -24
-18 -27 -25 -19 -41 9 -16 6 -25 -10 -42 -16 -17 -20 -30 -15 -52 5 -28 -17
-66 -45 -75 -6 -3 -5 -28 4 -69 22 -100 19 -127 -15 -166 -16 -19 -36 -56 -44
-84 -30 -101 -42 -112 -171 -156 -38 -14 -94 -41 -123 -61 l-53 -36 -119 6
c-66 3 -127 10 -135 14 -18 10 123 197 381 503 48 58 102 121 119 140 293 328
534 568 779 775 33 28 75 64 95 80 20 17 52 43 71 57 19 15 71 55 116 90 44
35 93 72 109 83 15 11 39 29 54 40 86 67 305 222 494 349 l219 147 27 -43 c16
-24 48 -66 72 -94 24 -27 59 -70 77 -94 42 -58 139 -187 245 -325 47 -60 102
-127 123 -147 48 -45 271 -198 289 -198 7 0 38 -16 70 -35 32 -19 78 -37 103
-41 43 -6 126 4 164 21 16 6 17 1 12 -68 -6 -65 -4 -81 16 -121 24 -51 71 -88
160 -126 44 -19 78 -24 170 -28 174 -6 264 17 465 117 88 44 171 83 185 86 63
17 108 55 135 111 34 71 65 194 65 256 l0 48 58 0 c31 0 72 4 90 10 19 5 98
18 176 30 184 26 230 40 318 99 81 54 237 210 311 311 27 36 54 72 60 80 7 8
50 69 96 135 121 173 149 227 161 315 20 146 32 195 60 249 26 53 27 60 19
131 -4 41 -16 107 -25 147 l-17 72 30 28 c41 39 78 107 98 180 14 51 17 89 12
195 -6 167 -28 244 -111 403 -35 66 -71 143 -80 170 -35 107 -80 144 -237 188
l-55 16 -34 83 c-186 457 -351 641 -660 737 -180 56 -369 75 -684 69 l-231 -4
-85 -48 c-47 -27 -94 -55 -105 -62 -11 -8 -23 -14 -27 -14 -4 0 -28 28 -54 61
-78 102 -211 175 -361 198 -91 14 -165 13 -277 -5z"/>
<path d="M526 2172 c-31 -60 -46 -144 -45 -252 1 -58 3 -96 6 -85 3 11 15 56
28 100 47 158 54 321 11 237z"/>
</g>
</svg>
